<?xml version="1.0" encoding="UTF-8"?>
<svg xmlns="http://www.w3.org/2000/svg" xmlns:xlink="http://www.w3.org/1999/xlink" width="96pt" height="96pt" viewBox="0 0 96 96" version="1.1">
<g id="surface825533">
<path style=" stroke:none;fill-rule:nonzero;fill:rgb(100%,100%,100%);fill-opacity:1;" d="M 48 12 C 45.792969 12 44 13.792969 44 16 L 44 68.28125 L 28.546875 52.828125 C 26.984375 51.265625 24.449219 51.265625 22.890625 52.828125 L 22.546875 53.171875 C 20.984375 54.734375 20.984375 57.269531 22.546875 58.828125 L 45.171875 81.453125 C 46.734375 83.015625 49.269531 83.015625 50.828125 81.453125 L 73.453125 58.828125 C 75.015625 57.265625 75.015625 54.730469 73.453125 53.171875 L 73.109375 52.828125 C 71.546875 51.265625 69.011719 51.265625 67.453125 52.828125 L 52 68.28125 L 52 16 C 52 13.792969 50.207031 12 48 12 Z M 48 12 "/>
</g>
</svg>
